<?xml version="1.0" encoding="UTF-8"?>
<!DOCTYPE svg PUBLIC "-//W3C//DTD SVG 1.1//EN" "http://www.w3.org/Graphics/SVG/1.1/DTD/svg11.dtd">
<!-- Creator: CorelDRAW (Versión OEM) -->
<svg xmlns="http://www.w3.org/2000/svg" xml:space="preserve" width="86.0856mm" height="17.7558mm" version="1.1" style="shape-rendering:geometricPrecision; text-rendering:geometricPrecision; image-rendering:optimizeQuality; fill-rule:evenodd; clip-rule:evenodd"
viewBox="0 0 375.86 77.52"
 xmlns:xlink="http://www.w3.org/1999/xlink"
 xmlns:xodm="http://www.corel.com/coreldraw/odm/2003">
 <defs>
  <style type="text/css">
   <![CDATA[
    .str0 {stroke:#F4F4F4;stroke-width:0.44;stroke-miterlimit:381.972}
    .fil0 {fill:#DBB630;fill-rule:nonzero}
   ]]>
  </style>
 </defs>
 <g id="Capa_x0020_1">
  <metadata id="CorelCorpID_0Corel-Layer"/>
  <path class="fil0 str0" d="M13.36 50.4c0,1.21 0.3,1.82 0.91,1.82 0.33,0 1.93,-0.72 4.8,-2.15l1.57 3.05c-4.96,4.46 -9.34,6.68 -13.14,6.68 -2.37,0 -4.18,-0.8 -5.42,-2.39 -1.24,-1.6 -1.86,-3.58 -1.86,-5.94 0,-2.37 1.34,-8.84 4.01,-19.44 2.67,-10.59 4.15,-17.87 4.42,-21.83 0,-0.88 -0.29,-1.94 -0.87,-3.18 -0.58,-1.24 -1.17,-2.24 -1.78,-3.01l-0.83 -1.16 0.25 -1.24c3.14,-0.94 8.32,-1.4 15.54,-1.4 0.66,1.27 0.99,3.1 0.99,5.49 0,2.39 -1.43,9.31 -4.3,20.76 -2.87,11.44 -4.3,19.42 -4.3,23.93zm14.3 8.67l-1.57 0c0,-2.59 0.79,-7.54 2.36,-14.86 1.57,-7.32 2.36,-11.47 2.36,-12.46 0,-1.82 -0.77,-3.74 -2.31,-5.78l-0.74 -0.99 0.08 -1.07c2.98,-0.83 7.74,-1.24 14.3,-1.24 0.77,1.05 1.16,2.75 1.16,5.12 4.96,-3.69 8.9,-5.53 11.82,-5.53 3.69,0 5.87,1.9 6.53,5.69 1.49,-1.21 3.43,-2.46 5.83,-3.76 2.4,-1.29 4.55,-1.94 6.45,-1.94 1.9,0 3.49,0.62 4.75,1.86 1.27,1.24 1.9,2.96 1.9,5.16 0,2.2 -0.61,5.83 -1.82,10.89 -1.21,5.06 -1.82,8.46 -1.82,10.19 0,1.73 0.25,2.6 0.74,2.6 0.33,0 1.46,-0.52 3.39,-1.57l0.91 -0.5 1.49 2.89c-1.43,1.43 -3.38,2.79 -5.83,4.09 -2.45,1.29 -4.62,1.94 -6.49,1.94 -4.13,0 -6.2,-2.34 -6.2,-7.01 0,-1.71 0.59,-5.13 1.78,-10.28 1.18,-5.14 1.78,-8.5 1.78,-10.07 0,-1.57 -0.47,-2.35 -1.41,-2.35 -1.6,0 -3.42,0.61 -5.46,1.82 -0.11,1.1 -0.87,4.84 -2.27,11.22 -1.41,6.38 -2.11,11.33 -2.11,14.86 -1.6,0.72 -5.35,1.07 -11.24,1.07 -0.11,-0.61 -0.17,-2.06 -0.17,-4.37 0,-2.31 0.65,-6.24 1.94,-11.8 1.29,-5.56 1.94,-9.08 1.94,-10.56 0,-1.49 -0.52,-2.23 -1.57,-2.23 -1.65,0 -3.47,0.66 -5.46,1.98 -0.11,0.5 -0.66,2.92 -1.65,7.26 -1.98,8.69 -2.98,14.88 -2.98,18.57 -1.93,0.77 -5.4,1.16 -10.42,1.16zm83.09 -34.42c0.11,-0.11 0.41,-0.83 0.91,-2.15 2.59,0 6.06,0.77 10.42,2.31 -1.38,4.57 -2.48,9.34 -3.31,14.32 -0.83,4.98 -1.24,8.53 -1.24,10.65 0,2.12 0.22,3.18 0.66,3.18 0.33,0 1.54,-0.52 3.64,-1.57l0.99 -0.5 1.49 2.89c-0.5,0.44 -1.14,0.99 -1.94,1.65 -0.8,0.66 -2.3,1.55 -4.51,2.68 -2.2,1.13 -4.19,1.69 -5.95,1.69 -3.42,0 -5.4,-1.54 -5.95,-4.62 -3.53,3.08 -6.71,4.62 -9.55,4.62 -2.84,0 -5.24,-1.1 -7.19,-3.3 -1.96,-2.2 -2.94,-5.67 -2.94,-10.4 0,-7.37 1.52,-13.19 4.55,-17.46 3.03,-4.26 6.7,-6.4 11,-6.4 3.09,0 6.06,0.8 8.93,2.39zm-9.42 28.14c1.32,0 2.81,-0.52 4.46,-1.57 0.39,-7.76 1.68,-15.43 3.89,-23.03 -1.65,-0.72 -3.06,-1.07 -4.22,-1.07 -1.98,0 -3.68,1.94 -5.08,5.82 -1.41,3.88 -2.11,8.16 -2.11,12.83 0,4.68 1.02,7.02 3.06,7.02zm34.93 14.94c-1.85,1.1 -2.77,2.17 -2.77,3.22 0,1.05 0.59,1.57 1.78,1.57 1.19,0 2.52,-0.56 4.01,-1.69 1.49,-1.13 2.73,-2.96 3.72,-5.49 -2.65,0.5 -4.89,1.29 -6.74,2.39zm24.51 -44.9c0.22,0.22 0.33,0.7 0.33,1.44 0,0.74 -0.06,1.54 -0.17,2.39 -0.11,0.85 -0.3,2.77 -0.58,5.74 -0.28,2.97 -0.55,5.56 -0.83,7.76 -2.81,24.76 -10.36,37.14 -22.65,37.14 -1.98,0 -3.79,-0.52 -5.42,-1.57 -1.63,-1.05 -2.44,-2.39 -2.44,-4.04 0,-2.2 1.35,-4.21 4.05,-6.02 2.7,-1.82 6.34,-3.22 10.91,-4.21 0,-0.06 0.17,-0.83 0.5,-2.31 0.33,-1.49 0.55,-2.7 0.66,-3.63 -3.31,2.42 -6.41,3.63 -9.3,3.63 -2.89,0 -5.26,-1.13 -7.11,-3.38 -1.85,-2.26 -2.77,-5.86 -2.77,-10.81 0,-6.49 1.46,-11.9 4.38,-16.22 2.92,-4.32 6.78,-6.48 11.57,-6.48 2.7,0 5.37,0.66 8.02,1.98 2.81,-0.99 5.84,-1.49 9.09,-1.49l1.74 0.08zm-15.13 4.29c-2.37,0 -4.24,1.91 -5.62,5.74 -1.38,3.82 -2.07,8.06 -2.07,12.71 0,4.65 1.05,6.97 3.14,6.97 1.38,0 3,-0.52 4.88,-1.57 1.54,-9.24 2.65,-16.86 3.31,-22.86 -1.54,-0.66 -2.76,-0.99 -3.64,-0.99zm35.55 0.25c0,2.31 -0.74,6.29 -2.23,11.93 -1.49,5.64 -2.23,9.33 -2.23,11.06 0,1.73 0.25,2.6 0.74,2.6 0.33,0 1.6,-0.52 3.8,-1.57l0.99 -0.5 1.41 2.89c-0.5,0.44 -1.16,0.99 -1.98,1.65 -0.83,0.66 -2.37,1.55 -4.63,2.68 -2.26,1.13 -4.35,1.69 -6.28,1.69 -1.93,0 -3.45,-0.59 -4.55,-1.77 -1.1,-1.18 -1.65,-2.78 -1.65,-4.79 0,-2.01 0.69,-5.58 2.07,-10.73 1.38,-5.14 2.07,-8.49 2.07,-10.03 0,-2.31 -0.72,-4.48 -2.15,-6.52l-0.74 -0.99 0.08 -1.07c2.92,-0.83 7.66,-1.24 14.22,-1.24 0.72,0.83 1.07,2.39 1.07,4.7zm-9.43 -13.74c-1.1,-1.07 -1.65,-2.52 -1.65,-4.33 0,-1.82 0.76,-3.41 2.27,-4.79 1.52,-1.38 3.27,-2.06 5.25,-2.06 1.98,0 3.53,0.55 4.63,1.65 1.1,1.1 1.65,2.54 1.65,4.33 0,1.79 -0.79,3.37 -2.36,4.75 -1.57,1.38 -3.32,2.06 -5.25,2.06 -1.93,0 -3.44,-0.54 -4.55,-1.61zm17.03 45.43l-1.57 0c0,-2.59 0.79,-7.54 2.36,-14.86 1.57,-7.32 2.36,-11.47 2.36,-12.46 0,-1.82 -0.77,-3.74 -2.31,-5.78l-0.74 -0.99 0.08 -1.07c2.98,-0.83 7.74,-1.24 14.3,-1.24 0.72,0.94 1.1,2.64 1.16,5.12 4.79,-3.69 8.85,-5.53 12.15,-5.53 1.98,0 3.57,0.69 4.75,2.06 1.18,1.38 1.78,3.1 1.78,5.16 0,2.06 -0.63,5.63 -1.9,10.69 -1.27,5.06 -1.9,8.46 -1.9,10.19 0,1.73 0.22,2.6 0.66,2.6 0.33,0 1.49,-0.52 3.47,-1.57l0.99 -0.5 1.49 2.89c-0.5,0.44 -1.16,0.99 -1.98,1.65 -0.83,0.66 -2.36,1.55 -4.59,2.68 -2.23,1.13 -4.23,1.69 -5.99,1.69 -4.02,0 -6.03,-2.28 -6.03,-6.85 0,-1.93 0.62,-5.48 1.86,-10.65 1.24,-5.17 1.86,-8.5 1.86,-9.99 0,-1.49 -0.47,-2.23 -1.41,-2.23 -1.6,0 -3.56,0.69 -5.87,2.06 -0.17,0.94 -0.72,3.41 -1.65,7.43 -1.93,8.64 -2.89,14.75 -2.89,18.32 -1.93,0.77 -5.4,1.16 -10.42,1.16zm64.4 -34.42c0.11,-0.11 0.41,-0.83 0.91,-2.15 2.59,0 6.06,0.77 10.42,2.31 -1.38,4.57 -2.48,9.34 -3.31,14.32 -0.83,4.98 -1.24,8.53 -1.24,10.65 0,2.12 0.22,3.18 0.66,3.18 0.33,0 1.54,-0.52 3.64,-1.57l0.99 -0.5 1.49 2.89c-0.5,0.44 -1.14,0.99 -1.94,1.65 -0.8,0.66 -2.3,1.55 -4.51,2.68 -2.2,1.13 -4.19,1.69 -5.95,1.69 -3.42,0 -5.4,-1.54 -5.95,-4.62 -3.53,3.08 -6.71,4.62 -9.55,4.62 -2.84,0 -5.24,-1.1 -7.19,-3.3 -1.96,-2.2 -2.93,-5.67 -2.93,-10.4 0,-7.37 1.52,-13.19 4.55,-17.46 3.03,-4.26 6.7,-6.4 11,-6.4 3.09,0 6.06,0.8 8.93,2.39zm-9.43 28.14c1.32,0 2.81,-0.52 4.46,-1.57 0.39,-7.76 1.68,-15.43 3.89,-23.03 -1.65,-0.72 -3.06,-1.07 -4.22,-1.07 -1.98,0 -3.68,1.94 -5.08,5.82 -1.41,3.88 -2.11,8.16 -2.11,12.83 0,4.68 1.02,7.02 3.06,7.02zm50.35 -29.55c-0.11,1.38 -0.58,2.97 -1.41,4.79 -2.09,-0.22 -4.08,-0.33 -5.95,-0.33l-1.49 0c-2.54,12.27 -3.8,19.92 -3.8,22.94 0,1.6 0.34,2.39 1.03,2.39 0.69,0 2.52,-0.69 5.5,-2.06l1.49 2.72c-4.91,4.07 -9.45,6.11 -13.64,6.11 -1.93,0 -3.51,-0.61 -4.75,-1.82 -1.24,-1.21 -1.86,-2.82 -1.86,-4.83 0,-2.01 0.23,-4.28 0.7,-6.81 0.47,-2.53 1.12,-5.63 1.94,-9.28 0.83,-3.66 1.43,-6.62 1.82,-8.87 -2.04,0.17 -3.55,0.33 -4.55,0.5 -0.11,-0.66 -0.17,-1.55 -0.17,-2.68 0,-1.13 0.08,-2.05 0.25,-2.77l5.21 0c0.44,-2.97 0.66,-5.78 0.66,-8.42l-0.08 -2.56 0 -0.25c4.3,-1.49 8.35,-2.23 12.15,-2.23 0.22,1.1 0.33,2.48 0.33,4.13 0,1.65 -0.47,4.76 -1.41,9.33l8.02 0zm16.45 4.13c0,2.31 -0.74,6.29 -2.23,11.93 -1.49,5.64 -2.23,9.33 -2.23,11.06 0,1.73 0.25,2.6 0.74,2.6 0.33,0 1.6,-0.52 3.8,-1.57l0.99 -0.5 1.41 2.89c-0.5,0.44 -1.16,0.99 -1.98,1.65 -0.83,0.66 -2.37,1.55 -4.63,2.68 -2.26,1.13 -4.35,1.69 -6.28,1.69 -1.93,0 -3.45,-0.59 -4.55,-1.77 -1.1,-1.18 -1.65,-2.78 -1.65,-4.79 0,-2.01 0.69,-5.58 2.07,-10.73 1.38,-5.14 2.07,-8.49 2.07,-10.03 0,-2.31 -0.72,-4.48 -2.15,-6.52l-0.74 -0.99 0.08 -1.07c2.92,-0.83 7.66,-1.24 14.22,-1.24 0.72,0.83 1.07,2.39 1.07,4.7zm-9.43 -13.74c-1.1,-1.07 -1.65,-2.52 -1.65,-4.33 0,-1.82 0.76,-3.41 2.27,-4.79 1.52,-1.38 3.27,-2.06 5.25,-2.06 1.98,0 3.53,0.55 4.63,1.65 1.1,1.1 1.65,2.54 1.65,4.33 0,1.79 -0.79,3.37 -2.36,4.75 -1.57,1.38 -3.32,2.06 -5.25,2.06 -1.93,0 -3.44,-0.54 -4.55,-1.61zm33.81 12.75c-2.2,0 -3.97,1.83 -5.29,5.49 -1.32,3.66 -1.98,7.58 -1.98,11.76 0,6.6 2.04,9.9 6.12,9.9 1.32,0 2.73,-0.32 4.22,-0.95 1.49,-0.63 2.67,-1.25 3.56,-1.86l1.24 -0.99 1.9 2.56c-0.44,0.61 -1.32,1.4 -2.65,2.39 -1.32,0.99 -2.56,1.82 -3.72,2.48 -1.16,0.66 -2.65,1.27 -4.46,1.82 -1.82,0.55 -3.61,0.83 -5.37,0.83 -4.3,0 -7.52,-1.4 -9.67,-4.21 -2.15,-2.81 -3.22,-6.58 -3.22,-11.31 0,-6.55 1.8,-11.86 5.42,-15.93 3.61,-4.07 8.25,-6.11 13.93,-6.11 3.69,0 6.63,0.84 8.8,2.52 2.18,1.68 3.27,3.74 3.27,6.19 0,2.45 -0.77,4.55 -2.31,6.31 -1.38,0 -2.98,-0.3 -4.79,-0.91 -1.82,-0.61 -3.2,-1.35 -4.13,-2.23l1.24 -7.26c-0.5,-0.33 -1.18,-0.5 -2.07,-0.5zm40.68 21.62c0,3.47 -1.53,6.3 -4.59,8.5 -3.06,2.2 -6.54,3.3 -10.46,3.3 -3.91,0 -7.01,-0.83 -9.3,-2.48 -2.29,-1.65 -3.43,-3.11 -3.43,-4.37 0,-0.77 0.96,-2.02 2.89,-3.76 1.93,-1.73 3.56,-2.79 4.88,-3.18 2.76,2.04 5.02,5.25 6.78,9.66 2.04,-0.17 3.06,-1.13 3.06,-2.89 0,-2.53 -2.23,-6.12 -6.7,-10.77 -4.46,-4.65 -6.7,-8.35 -6.7,-11.1 0,-2.75 1.24,-4.88 3.72,-6.4 2.48,-1.51 5.47,-2.27 8.97,-2.27 3.5,0 6.13,0.62 7.89,1.86 1.76,1.24 2.65,2.92 2.65,5.03 0,2.12 -1.68,5.05 -5.04,8.79 0.39,0.39 0.88,0.89 1.49,1.53 0.61,0.63 1.41,1.83 2.4,3.59 0.99,1.76 1.49,3.41 1.49,4.95zm-7.94 -12.96c2.31,-1.98 3.47,-3.93 3.47,-5.86 0,-1.93 -1.32,-2.89 -3.97,-2.89 -1.27,0 -2.31,0.26 -3.14,0.78 -0.83,0.52 -1.24,1.11 -1.24,1.77 0,1.21 1.21,2.92 3.64,5.12l1.24 1.07z"/>
 </g>
</svg>
